<svg width="123" height="60" viewBox="0 0 123 36" fill="none" xmlns="http://www.w3.org/2000/svg">
<path d="M0.295898 0.770508H12.2832C19.0215 0.770508 23.5869 5.18945 23.5869 11.7324C23.5869 18.2754 18.9727 22.7188 12.2588 22.7188H3.61621V36H0.295898V0.770508ZM3.61621 3.74902V19.7402H11.502C16.9219 19.7402 20.1689 16.7373 20.1689 11.7324C20.1689 6.72754 16.9463 3.74902 11.502 3.74902H3.61621ZM49.3438 32.9727V36H28.3721V0.770508H31.6924V32.9727H49.3438ZM77.4688 36L73.5625 25.209H58.7676L54.8613 36H51.3213L64.5049 0.770508H67.8252L80.9844 36H77.4688ZM66.0918 4.89648L59.7686 22.3281H72.5615L66.2383 4.89648H66.0918ZM88.1865 36H84.8662V0.770508H88.1865V36ZM98.0742 36H94.7783V0.770508H98.0742L118.729 30.1895H118.899V0.770508H122.195V36H118.973L98.2451 6.55664H98.0742V36Z" fill="#D6DDED"/>
</svg>
