<svg width="20" height="20" viewBox="0 0 20 20" fill="none" xmlns="http://www.w3.org/2000/svg">
<g opacity="0.5">
<path d="M0.5 10C0.5 4.7533 4.7533 0.5 10 0.5C15.2467 0.5 19.5 4.7533 19.5 10C19.5 15.2467 15.2467 19.5 10 19.5C4.7533 19.5 0.5 15.2467 0.5 10Z" stroke="#1F2C4D"/>
<path d="M6.4248 7.09717C6.5127 5.54443 7.604 4.33594 9.49365 4.33594C11.2588 4.33594 12.4966 5.46387 12.4966 6.95801C12.4966 8.04199 11.9546 8.81104 10.9512 9.45557C9.9917 10.0708 9.7207 10.4883 9.7207 11.3013V11.8506H8.74658V11.1621C8.73926 10.1953 9.16406 9.58008 10.1895 8.91357C11.105 8.30566 11.4639 7.79297 11.4639 7.00195C11.4639 5.96191 10.6362 5.20752 9.45703 5.20752C8.28516 5.20752 7.47217 5.93994 7.37695 7.09717H6.4248ZM9.24463 15.0659C8.86377 15.0659 8.56348 14.7656 8.56348 14.3848C8.56348 13.9966 8.86377 13.6963 9.24463 13.6963C9.63281 13.6963 9.93311 13.9966 9.93311 14.3848C9.93311 14.7656 9.63281 15.0659 9.24463 15.0659Z" fill="#1F2C4D"/>
</g>
</svg>
